<mxfile host="Electron" agent="Mozilla/5.0 (Windows NT 10.0; Win64; x64) AppleWebKit/537.36 (KHTML, like Gecko) draw.io/24.7.17 Chrome/128.0.6613.36 Electron/32.0.1 Safari/537.36" version="24.7.17">
  <diagram name="Page-1" id="16e2658f-23c8-b752-8be9-c03fbebb8bbe">
    <mxGraphModel dx="1232" dy="1187" grid="1" gridSize="10" guides="1" tooltips="1" connect="1" arrows="1" fold="1" page="1" pageScale="1" pageWidth="1100" pageHeight="850" background="none" math="0" shadow="0">
      <root>
        <mxCell id="0" />
        <mxCell id="1" parent="0" />
        <mxCell id="GLSl7IZd2Jmq9ypKJ_qu-27" style="edgeStyle=orthogonalEdgeStyle;shape=connector;rounded=0;orthogonalLoop=1;jettySize=auto;html=1;exitX=1;exitY=0.5;exitDx=0;exitDy=0;entryX=0.5;entryY=1;entryDx=0;entryDy=0;strokeColor=#b85450;align=center;verticalAlign=middle;fontFamily=Helvetica;fontSize=11;fontColor=default;labelBackgroundColor=default;endArrow=none;endFill=0;strokeWidth=3;fillColor=#f8cecc;" edge="1" parent="1" source="GLSl7IZd2Jmq9ypKJ_qu-1" target="GLSl7IZd2Jmq9ypKJ_qu-24">
          <mxGeometry relative="1" as="geometry" />
        </mxCell>
        <mxCell id="GLSl7IZd2Jmq9ypKJ_qu-39" style="edgeStyle=orthogonalEdgeStyle;shape=connector;rounded=0;orthogonalLoop=1;jettySize=auto;html=1;exitX=0;exitY=0.5;exitDx=0;exitDy=0;entryX=0.5;entryY=1;entryDx=0;entryDy=0;strokeColor=default;align=center;verticalAlign=middle;fontFamily=Helvetica;fontSize=11;fontColor=default;labelBackgroundColor=default;endArrow=none;endFill=0;strokeWidth=3;" edge="1" parent="1" source="GLSl7IZd2Jmq9ypKJ_qu-1" target="GLSl7IZd2Jmq9ypKJ_qu-25">
          <mxGeometry relative="1" as="geometry">
            <Array as="points">
              <mxPoint x="80" y="480" />
              <mxPoint x="270" y="480" />
              <mxPoint x="270" y="390" />
              <mxPoint x="290" y="390" />
            </Array>
          </mxGeometry>
        </mxCell>
        <mxCell id="GLSl7IZd2Jmq9ypKJ_qu-1" value="5V - 12V" style="pointerEvents=1;verticalLabelPosition=bottom;shadow=0;dashed=0;align=center;html=1;verticalAlign=top;shape=mxgraph.electrical.miscellaneous.batteryStack;flipV=1;rotation=-90;" vertex="1" parent="1">
          <mxGeometry x="30" y="380" width="100" height="60" as="geometry" />
        </mxCell>
        <mxCell id="GLSl7IZd2Jmq9ypKJ_qu-20" style="edgeStyle=orthogonalEdgeStyle;shape=connector;rounded=0;orthogonalLoop=1;jettySize=auto;html=1;exitX=1;exitY=0.5;exitDx=0;exitDy=0;entryX=0;entryY=0.5;entryDx=0;entryDy=0;strokeColor=#b85450;align=center;verticalAlign=middle;fontFamily=Helvetica;fontSize=11;fontColor=default;labelBackgroundColor=default;endArrow=none;endFill=0;strokeWidth=3;fillColor=#f8cecc;" edge="1" parent="1" source="rHC-V5FlD3QcIV5QtM0p-1" target="GLSl7IZd2Jmq9ypKJ_qu-16">
          <mxGeometry relative="1" as="geometry" />
        </mxCell>
        <mxCell id="GLSl7IZd2Jmq9ypKJ_qu-21" style="edgeStyle=orthogonalEdgeStyle;shape=connector;rounded=0;orthogonalLoop=1;jettySize=auto;html=1;exitX=0;exitY=0.5;exitDx=0;exitDy=0;entryX=0;entryY=0.5;entryDx=0;entryDy=0;strokeColor=#6c8ebf;align=center;verticalAlign=middle;fontFamily=Helvetica;fontSize=11;fontColor=default;labelBackgroundColor=default;endArrow=none;endFill=0;strokeWidth=3;fillColor=#dae8fc;" edge="1" parent="1" source="rHC-V5FlD3QcIV5QtM0p-1" target="GLSl7IZd2Jmq9ypKJ_qu-17">
          <mxGeometry relative="1" as="geometry" />
        </mxCell>
        <mxCell id="rHC-V5FlD3QcIV5QtM0p-1" value="M" style="verticalLabelPosition=middle;shadow=0;dashed=0;align=center;html=1;verticalAlign=middle;strokeWidth=1;shape=ellipse;aspect=fixed;fontSize=35;rotation=0;container=0;" parent="1" vertex="1">
          <mxGeometry x="100" y="210" width="60" height="60" as="geometry" />
        </mxCell>
        <mxCell id="GLSl7IZd2Jmq9ypKJ_qu-5" value="&lt;b style=&quot;font-size: 14px;&quot;&gt;&lt;font style=&quot;font-size: 14px;&quot;&gt;L298N&lt;/font&gt;&lt;/b&gt;&lt;div style=&quot;font-size: 14px;&quot;&gt;&lt;b style=&quot;&quot;&gt;&lt;font style=&quot;font-size: 14px;&quot;&gt;Motor Drive Controller&lt;/font&gt;&lt;/b&gt;&lt;/div&gt;&lt;div style=&quot;font-size: 14px;&quot;&gt;&lt;b style=&quot;&quot;&gt;&lt;font style=&quot;font-size: 14px;&quot;&gt;&lt;br&gt;&lt;/font&gt;&lt;/b&gt;&lt;/div&gt;&lt;div style=&quot;font-size: 14px;&quot;&gt;&lt;b style=&quot;&quot;&gt;&lt;font style=&quot;font-size: 14px;&quot;&gt;&lt;br&gt;&lt;/font&gt;&lt;/b&gt;&lt;/div&gt;" style="rounded=0;whiteSpace=wrap;html=1;fillColor=#f5f5f5;strokeColor=#666666;fontColor=#333333;" vertex="1" parent="1">
          <mxGeometry x="240" y="160" width="240" height="195" as="geometry" />
        </mxCell>
        <mxCell id="GLSl7IZd2Jmq9ypKJ_qu-7" value="" style="group;fillColor=none;strokeColor=#6c8ebf;fillStyle=auto;gradientColor=none;glass=0;rounded=0;shadow=0;" vertex="1" connectable="0" parent="1">
          <mxGeometry x="510" y="410" width="250" height="400" as="geometry" />
        </mxCell>
        <mxCell id="rHC-V5FlD3QcIV5QtM0p-12" value="&lt;b&gt;&lt;font style=&quot;font-size: 14px;&quot;&gt;ESP32-NodeMCU&lt;/font&gt;&lt;/b&gt;&lt;div&gt;&lt;b&gt;&lt;font style=&quot;font-size: 14px;&quot;&gt;&lt;br&gt;&lt;/font&gt;&lt;/b&gt;&lt;/div&gt;&lt;div&gt;&lt;b&gt;&lt;font style=&quot;font-size: 14px;&quot;&gt;&lt;br&gt;&lt;/font&gt;&lt;/b&gt;&lt;/div&gt;&lt;div&gt;&lt;b&gt;&lt;font style=&quot;font-size: 14px;&quot;&gt;&lt;br&gt;&lt;/font&gt;&lt;/b&gt;&lt;/div&gt;" style="shadow=0;dashed=0;align=center;html=1;strokeWidth=1;shape=mxgraph.electrical.logic_gates.dual_inline_ic;labelNames=GPIO5,GPIO4,GPIO18,GPIO19,GPIO23,GPIO22,%2B5V,GND;whiteSpace=wrap;labelCount=8;pinLabelType=cust;startPin=n;pinSpacing=25;" parent="GLSl7IZd2Jmq9ypKJ_qu-7" vertex="1">
          <mxGeometry width="250" height="400" as="geometry" />
        </mxCell>
        <mxCell id="GLSl7IZd2Jmq9ypKJ_qu-6" value="" style="sketch=0;outlineConnect=0;fontColor=#232F3E;gradientColor=none;fillColor=#ED7100;strokeColor=none;dashed=0;verticalLabelPosition=bottom;verticalAlign=top;align=center;html=1;fontSize=12;fontStyle=0;aspect=fixed;pointerEvents=1;shape=mxgraph.aws4.braket_chip;" vertex="1" parent="GLSl7IZd2Jmq9ypKJ_qu-7">
          <mxGeometry x="92.5" y="189.9964102564103" width="65" height="65" as="geometry" />
        </mxCell>
        <mxCell id="GLSl7IZd2Jmq9ypKJ_qu-8" value="M" style="verticalLabelPosition=middle;shadow=0;dashed=0;align=center;html=1;verticalAlign=middle;strokeWidth=1;shape=ellipse;aspect=fixed;fontSize=35;rotation=0;container=0;" vertex="1" parent="1">
          <mxGeometry x="520" y="210" width="60" height="60" as="geometry" />
        </mxCell>
        <mxCell id="GLSl7IZd2Jmq9ypKJ_qu-16" value="A+" style="whiteSpace=wrap;html=1;aspect=fixed;fontFamily=Helvetica;fontSize=11;labelBackgroundColor=default;fillColor=#f8cecc;strokeColor=#b85450;" vertex="1" parent="1">
          <mxGeometry x="240" y="270" width="20" height="20" as="geometry" />
        </mxCell>
        <mxCell id="GLSl7IZd2Jmq9ypKJ_qu-17" value="A-" style="whiteSpace=wrap;html=1;aspect=fixed;fontFamily=Helvetica;fontSize=11;labelBackgroundColor=default;fillColor=#dae8fc;strokeColor=#6c8ebf;" vertex="1" parent="1">
          <mxGeometry x="240" y="290" width="20" height="20" as="geometry" />
        </mxCell>
        <mxCell id="GLSl7IZd2Jmq9ypKJ_qu-22" style="edgeStyle=orthogonalEdgeStyle;shape=connector;rounded=0;orthogonalLoop=1;jettySize=auto;html=1;exitX=1;exitY=0.5;exitDx=0;exitDy=0;entryX=0;entryY=0.5;entryDx=0;entryDy=0;strokeColor=#b85450;align=center;verticalAlign=middle;fontFamily=Helvetica;fontSize=11;fontColor=default;labelBackgroundColor=default;endArrow=none;endFill=0;strokeWidth=3;fillColor=#f8cecc;" edge="1" parent="1" source="GLSl7IZd2Jmq9ypKJ_qu-18" target="GLSl7IZd2Jmq9ypKJ_qu-8">
          <mxGeometry relative="1" as="geometry" />
        </mxCell>
        <mxCell id="GLSl7IZd2Jmq9ypKJ_qu-18" value="B+" style="whiteSpace=wrap;html=1;aspect=fixed;fontFamily=Helvetica;fontSize=11;labelBackgroundColor=default;fillColor=#f8cecc;strokeColor=#b85450;" vertex="1" parent="1">
          <mxGeometry x="460" y="270" width="20" height="20" as="geometry" />
        </mxCell>
        <mxCell id="GLSl7IZd2Jmq9ypKJ_qu-23" style="edgeStyle=orthogonalEdgeStyle;shape=connector;rounded=0;orthogonalLoop=1;jettySize=auto;html=1;exitX=1;exitY=0.5;exitDx=0;exitDy=0;entryX=1;entryY=0.5;entryDx=0;entryDy=0;strokeColor=#6c8ebf;align=center;verticalAlign=middle;fontFamily=Helvetica;fontSize=11;fontColor=default;labelBackgroundColor=default;endArrow=none;endFill=0;strokeWidth=3;fillColor=#dae8fc;" edge="1" parent="1" source="GLSl7IZd2Jmq9ypKJ_qu-19" target="GLSl7IZd2Jmq9ypKJ_qu-8">
          <mxGeometry relative="1" as="geometry" />
        </mxCell>
        <mxCell id="GLSl7IZd2Jmq9ypKJ_qu-19" value="B-" style="whiteSpace=wrap;html=1;aspect=fixed;fontFamily=Helvetica;fontSize=11;labelBackgroundColor=default;fillColor=#dae8fc;strokeColor=#6c8ebf;" vertex="1" parent="1">
          <mxGeometry x="460" y="290" width="20" height="20" as="geometry" />
        </mxCell>
        <mxCell id="GLSl7IZd2Jmq9ypKJ_qu-24" value="12V" style="whiteSpace=wrap;html=1;aspect=fixed;fontFamily=Helvetica;fontSize=11;labelBackgroundColor=default;fillColor=#f8cecc;strokeColor=#b85450;" vertex="1" parent="1">
          <mxGeometry x="260" y="335" width="20" height="20" as="geometry" />
        </mxCell>
        <mxCell id="GLSl7IZd2Jmq9ypKJ_qu-25" value="" style="whiteSpace=wrap;html=1;aspect=fixed;fontFamily=Helvetica;fontSize=11;labelBackgroundColor=default;fillColor=#080808;strokeColor=#b85450;" vertex="1" parent="1">
          <mxGeometry x="280" y="335" width="20" height="20" as="geometry" />
        </mxCell>
        <mxCell id="GLSl7IZd2Jmq9ypKJ_qu-26" value="5V" style="whiteSpace=wrap;html=1;aspect=fixed;fontFamily=Helvetica;fontSize=11;labelBackgroundColor=default;fillColor=#f8cecc;strokeColor=#b85450;" vertex="1" parent="1">
          <mxGeometry x="300" y="335" width="20" height="20" as="geometry" />
        </mxCell>
        <mxCell id="GLSl7IZd2Jmq9ypKJ_qu-29" style="edgeStyle=orthogonalEdgeStyle;shape=connector;rounded=0;orthogonalLoop=1;jettySize=auto;html=1;exitX=0.5;exitY=1;exitDx=0;exitDy=0;entryX=0;entryY=0;entryDx=0;entryDy=162.5;entryPerimeter=0;strokeColor=#b85450;align=center;verticalAlign=middle;fontFamily=Helvetica;fontSize=11;fontColor=default;labelBackgroundColor=default;endArrow=none;endFill=0;strokeWidth=3;fillColor=#f8cecc;" edge="1" parent="1" source="GLSl7IZd2Jmq9ypKJ_qu-26" target="rHC-V5FlD3QcIV5QtM0p-12">
          <mxGeometry relative="1" as="geometry" />
        </mxCell>
        <mxCell id="GLSl7IZd2Jmq9ypKJ_qu-31" value="A1" style="whiteSpace=wrap;html=1;aspect=fixed;fontFamily=Helvetica;fontSize=11;labelBackgroundColor=default;fillColor=#ffe6cc;strokeColor=#d79b00;" vertex="1" parent="1">
          <mxGeometry x="360" y="335" width="20" height="20" as="geometry" />
        </mxCell>
        <mxCell id="GLSl7IZd2Jmq9ypKJ_qu-32" value="B1" style="whiteSpace=wrap;html=1;aspect=fixed;fontFamily=Helvetica;fontSize=11;labelBackgroundColor=default;fillColor=#ffe6cc;strokeColor=#d79b00;" vertex="1" parent="1">
          <mxGeometry x="400" y="335" width="20" height="20" as="geometry" />
        </mxCell>
        <mxCell id="GLSl7IZd2Jmq9ypKJ_qu-33" value="A2" style="whiteSpace=wrap;html=1;aspect=fixed;fontFamily=Helvetica;fontSize=11;labelBackgroundColor=default;fillColor=#ffe6cc;strokeColor=#d79b00;" vertex="1" parent="1">
          <mxGeometry x="380" y="335" width="20" height="20" as="geometry" />
        </mxCell>
        <mxCell id="GLSl7IZd2Jmq9ypKJ_qu-34" value="AS" style="whiteSpace=wrap;html=1;aspect=fixed;fontFamily=Helvetica;fontSize=11;labelBackgroundColor=default;fillColor=#e1d5e7;strokeColor=#9673a6;" vertex="1" parent="1">
          <mxGeometry x="340" y="335" width="20" height="20" as="geometry" />
        </mxCell>
        <mxCell id="GLSl7IZd2Jmq9ypKJ_qu-35" value="B2" style="whiteSpace=wrap;html=1;aspect=fixed;fontFamily=Helvetica;fontSize=11;labelBackgroundColor=default;fillColor=#ffe6cc;strokeColor=#d79b00;" vertex="1" parent="1">
          <mxGeometry x="420" y="335" width="20" height="20" as="geometry" />
        </mxCell>
        <mxCell id="GLSl7IZd2Jmq9ypKJ_qu-36" value="BS" style="whiteSpace=wrap;html=1;aspect=fixed;fontFamily=Helvetica;fontSize=11;labelBackgroundColor=default;fillColor=#e1d5e7;strokeColor=#9673a6;" vertex="1" parent="1">
          <mxGeometry x="440" y="335" width="20" height="20" as="geometry" />
        </mxCell>
        <mxCell id="GLSl7IZd2Jmq9ypKJ_qu-40" style="edgeStyle=orthogonalEdgeStyle;shape=connector;rounded=0;orthogonalLoop=1;jettySize=auto;html=1;exitX=0;exitY=0;exitDx=0;exitDy=187.5;exitPerimeter=0;entryX=0.5;entryY=1;entryDx=0;entryDy=0;strokeColor=default;align=center;verticalAlign=middle;fontFamily=Helvetica;fontSize=11;fontColor=default;labelBackgroundColor=default;endArrow=none;endFill=0;strokeWidth=3;" edge="1" parent="1" source="rHC-V5FlD3QcIV5QtM0p-12" target="GLSl7IZd2Jmq9ypKJ_qu-25">
          <mxGeometry relative="1" as="geometry" />
        </mxCell>
        <mxCell id="GLSl7IZd2Jmq9ypKJ_qu-41" style="edgeStyle=orthogonalEdgeStyle;shape=connector;rounded=0;orthogonalLoop=1;jettySize=auto;html=1;entryX=0.5;entryY=1;entryDx=0;entryDy=0;strokeColor=#d79b00;align=center;verticalAlign=middle;fontFamily=Helvetica;fontSize=11;fontColor=default;labelBackgroundColor=default;endArrow=none;endFill=0;fillColor=#ffe6cc;strokeWidth=3;exitX=0;exitY=0;exitDx=0;exitDy=12.5;exitPerimeter=0;" edge="1" parent="1" source="rHC-V5FlD3QcIV5QtM0p-12" target="GLSl7IZd2Jmq9ypKJ_qu-35">
          <mxGeometry relative="1" as="geometry">
            <mxPoint x="510" y="420" as="sourcePoint" />
          </mxGeometry>
        </mxCell>
        <mxCell id="GLSl7IZd2Jmq9ypKJ_qu-42" style="edgeStyle=orthogonalEdgeStyle;shape=connector;rounded=0;orthogonalLoop=1;jettySize=auto;html=1;exitX=0;exitY=0;exitDx=0;exitDy=37.5;exitPerimeter=0;entryX=0.5;entryY=1;entryDx=0;entryDy=0;strokeColor=#d79b00;align=center;verticalAlign=middle;fontFamily=Helvetica;fontSize=11;fontColor=default;labelBackgroundColor=default;endArrow=none;endFill=0;fillColor=#ffe6cc;strokeWidth=3;" edge="1" parent="1" source="rHC-V5FlD3QcIV5QtM0p-12" target="GLSl7IZd2Jmq9ypKJ_qu-32">
          <mxGeometry relative="1" as="geometry" />
        </mxCell>
        <mxCell id="GLSl7IZd2Jmq9ypKJ_qu-44" style="edgeStyle=orthogonalEdgeStyle;shape=connector;rounded=0;orthogonalLoop=1;jettySize=auto;html=1;exitX=0;exitY=0;exitDx=0;exitDy=137.5;exitPerimeter=0;entryX=0.5;entryY=1;entryDx=0;entryDy=0;strokeColor=#d79b00;align=center;verticalAlign=middle;fontFamily=Helvetica;fontSize=11;fontColor=default;labelBackgroundColor=default;endArrow=none;endFill=0;fillColor=#ffe6cc;strokeWidth=3;" edge="1" parent="1" source="rHC-V5FlD3QcIV5QtM0p-12" target="GLSl7IZd2Jmq9ypKJ_qu-31">
          <mxGeometry relative="1" as="geometry" />
        </mxCell>
        <mxCell id="GLSl7IZd2Jmq9ypKJ_qu-45" style="edgeStyle=orthogonalEdgeStyle;shape=connector;rounded=0;orthogonalLoop=1;jettySize=auto;html=1;exitX=0;exitY=0;exitDx=0;exitDy=112.5;exitPerimeter=0;entryX=0.5;entryY=1;entryDx=0;entryDy=0;strokeColor=#d79b00;align=center;verticalAlign=middle;fontFamily=Helvetica;fontSize=11;fontColor=default;labelBackgroundColor=default;endArrow=none;endFill=0;fillColor=#ffe6cc;strokeWidth=3;" edge="1" parent="1" source="rHC-V5FlD3QcIV5QtM0p-12" target="GLSl7IZd2Jmq9ypKJ_qu-33">
          <mxGeometry relative="1" as="geometry" />
        </mxCell>
        <mxCell id="GLSl7IZd2Jmq9ypKJ_qu-46" style="edgeStyle=orthogonalEdgeStyle;shape=connector;rounded=0;orthogonalLoop=1;jettySize=auto;html=1;entryX=0.5;entryY=1;entryDx=0;entryDy=0;strokeColor=#9673a6;align=center;verticalAlign=middle;fontFamily=Helvetica;fontSize=11;fontColor=default;labelBackgroundColor=default;endArrow=none;endFill=0;jumpStyle=arc;fillColor=#e1d5e7;strokeWidth=3;exitX=0;exitY=0;exitDx=0;exitDy=62.5;exitPerimeter=0;" edge="1" parent="1" source="rHC-V5FlD3QcIV5QtM0p-12" target="GLSl7IZd2Jmq9ypKJ_qu-34">
          <mxGeometry relative="1" as="geometry">
            <mxPoint x="510" y="480" as="sourcePoint" />
          </mxGeometry>
        </mxCell>
        <mxCell id="GLSl7IZd2Jmq9ypKJ_qu-47" style="edgeStyle=orthogonalEdgeStyle;shape=connector;rounded=0;orthogonalLoop=1;jettySize=auto;html=1;exitX=0;exitY=0;exitDx=0;exitDy=87.5;exitPerimeter=0;entryX=0.5;entryY=1;entryDx=0;entryDy=0;strokeColor=#9673a6;align=center;verticalAlign=middle;fontFamily=Helvetica;fontSize=11;fontColor=default;labelBackgroundColor=default;endArrow=none;endFill=0;jumpStyle=arc;fillColor=#e1d5e7;strokeWidth=3;" edge="1" parent="1" source="rHC-V5FlD3QcIV5QtM0p-12" target="GLSl7IZd2Jmq9ypKJ_qu-36">
          <mxGeometry relative="1" as="geometry" />
        </mxCell>
        <mxCell id="GLSl7IZd2Jmq9ypKJ_qu-48" value="&lt;h1 style=&quot;margin-top: 0px;&quot;&gt;&amp;nbsp; &amp;nbsp;Control-PINs&lt;/h1&gt;&lt;p&gt;&lt;/p&gt;&lt;ul style=&quot;font-size: 14px;&quot;&gt;&lt;li&gt;AS - GPIO18&lt;/li&gt;&lt;li&gt;A1 -&amp;nbsp;GPIO22&lt;/li&gt;&lt;li&gt;A2 -&amp;nbsp;GPIO23&lt;/li&gt;&lt;li&gt;BS -&amp;nbsp;GPIO19&lt;/li&gt;&lt;li&gt;B1 -&amp;nbsp;GPIO4&lt;/li&gt;&lt;li&gt;B2 -&amp;nbsp;GPIO5&lt;/li&gt;&lt;/ul&gt;" style="text;html=1;whiteSpace=wrap;overflow=hidden;rounded=0;fontFamily=Helvetica;fontSize=11;fontColor=default;labelBackgroundColor=default;strokeWidth=1;" vertex="1" parent="1">
          <mxGeometry x="710" y="190" width="170" height="160" as="geometry" />
        </mxCell>
      </root>
    </mxGraphModel>
  </diagram>
</mxfile>
